HIERARCHY
ROOT joint_0
{
	OFFSET 0.000000 0.000000 0.000000
	CHANNELS 6 Xposition Yposition Zposition Zrotation Yrotation Xrotation 
	JOINT joint_1
	{
		OFFSET 6.590088 -1.122192 114.019043
		CHANNELS 3 Zrotation Yrotation Xrotation
		JOINT joint_2
		{
			OFFSET -5.956055 -0.820435 104.151001
			CHANNELS 3 Zrotation Yrotation Xrotation
			JOINT joint_3
			{
				OFFSET -7.343506 -1.103027 103.942993
				CHANNELS 3 Zrotation Yrotation Xrotation
				JOINT joint_4
				{
					OFFSET 3.109131 -2.857056 147.715942
					CHANNELS 3 Zrotation Yrotation Xrotation
					JOINT joint_5
					{
						OFFSET 28.592285 -2.852295 87.703979
						CHANNELS 3 Zrotation Yrotation Xrotation
						End Site
						{
							OFFSET 0.000000 0.000000 0.000000
						}
					}
				}
				JOINT joint_6
				{
					OFFSET -0.332520 -33.687378 82.401978
					CHANNELS 3 Zrotation Yrotation Xrotation
					JOINT joint_7
					{
						OFFSET -7.397461 -168.719177 -22.750977
						CHANNELS 3 Zrotation Yrotation Xrotation
						JOINT joint_8
						{
							OFFSET 17.065918 -24.903137 -272.721069
							CHANNELS 3 Zrotation Yrotation Xrotation
							JOINT joint_9
							{
								OFFSET 33.311279 -37.031616 -278.192993
								CHANNELS 3 Zrotation Yrotation Xrotation
								End Site
								{
									OFFSET 0.000000 0.000000 0.000000
								}
							}
						}
					}
				}
				JOINT joint_10
				{
					OFFSET 3.914307 30.461670 83.552979
					CHANNELS 3 Zrotation Yrotation Xrotation
					JOINT joint_11
					{
						OFFSET 15.543701 166.845459 -30.963013
						CHANNELS 3 Zrotation Yrotation Xrotation
						JOINT joint_12
						{
							OFFSET 35.734863 35.017700 -269.786011
							CHANNELS 3 Zrotation Yrotation Xrotation
							JOINT joint_13
							{
								OFFSET 70.506592 13.977783 -273.320007
								CHANNELS 3 Zrotation Yrotation Xrotation
								End Site
								{
									OFFSET 0.000000 0.000000 0.000000
								}
							}
						}
					}
				}
			}
		}
	}
	JOINT joint_14
	{
		OFFSET -0.314697 -95.093994 -116.004028
		CHANNELS 3 Zrotation Yrotation Xrotation
		JOINT joint_15
		{
			OFFSET -22.490723 2.017883 -455.510986
			CHANNELS 3 Zrotation Yrotation Xrotation
			JOINT joint_16
			{
				OFFSET -46.427490 7.144104 -496.360985
				CHANNELS 3 Zrotation Yrotation Xrotation
				JOINT joint_17
				{
					OFFSET 209.055420 -37.122803 -85.191002
					CHANNELS 3 Zrotation Yrotation Xrotation
					End Site
					{
						OFFSET 0.000000 0.000000 0.000000
					}
				}
			}
		}
	}
	JOINT joint_18
	{
		OFFSET 5.652832 94.642578 -116.244019
		CHANNELS 3 Zrotation Yrotation Xrotation
		JOINT joint_19
		{
			OFFSET -12.379883 -7.332642 -455.843994
			CHANNELS 3 Zrotation Yrotation Xrotation
			JOINT joint_20
			{
				OFFSET -45.227051 -8.172241 -496.457985
				CHANNELS 3 Zrotation Yrotation Xrotation
				JOINT joint_21
				{
					OFFSET 210.522949 -11.530396 -88.809004
					CHANNELS 3 Zrotation Yrotation Xrotation
					End Site
					{
						OFFSET 0.000000 0.000000 0.000000
					}
				}
			}
		}
	}
}
MOTION
Frames: 5
Frame Time: 0.016667
-2071.183838 981.622131 1159.771973 7.540114 10.632574 3.521116 -1.546378 6.676101 -0.463958 0.821153 -1.270542 0.125915 1.260938 1.254395 -0.095223 2.871566 -12.221761 -7.596396 0.000000 0.000000 0.000000 -2.911785 2.077691 -3.365714 -7.919054 4.397851 -18.850009 -179.088699 -86.512829 -162.573545 0.000000 0.000000 0.000000 5.634101 -11.562500 3.932812 9.508002 -8.274839 2.123289 -8.760253 -83.251874 -37.316041 0.000000 0.000000 0.000000 7.690438 -28.184420 -8.759961 3.813047 35.010251 4.107308 7.647483 -7.485649 1.457431 0.000000 0.000000 0.000000 1.598791 -37.012223 8.891568 -5.683827 65.702080 -5.974453 0.080663 8.729127 -0.039181 0.000000 0.000000 0.000000 
-2051.464844 983.344849 1160.581055 6.436922 10.242512 3.087158 -1.732213 7.386388 -0.654227 0.906497 -1.430126 0.136864 1.390671 1.396999 -0.107527 2.947938 -12.337144 -7.725880 0.000000 0.000000 0.000000 -3.077790 2.278455 -3.040625 -7.692608 4.558709 -19.633415 -178.951021 -86.757026 -162.559820 0.000000 0.000000 0.000000 5.342991 -11.800120 3.823087 10.098202 -8.338619 2.180708 -8.476365 -84.092909 -38.458660 0.000000 0.000000 0.000000 8.302053 -27.108424 -8.842681 4.154129 35.553273 5.226907 8.249391 -7.384083 1.684449 0.000000 0.000000 0.000000 2.574189 -39.074001 9.414420 -5.230495 66.042450 -4.767274 1.311903 7.155162 0.299774 0.000000 0.000000 0.000000 
-2032.374023 984.793457 1162.347046 5.123745 9.981916 2.633744 -1.880925 7.990173 -1.055554 0.930254 -1.579896 0.220858 1.419213 1.518535 -0.164848 2.984183 -12.351439 -7.685606 0.000000 0.000000 0.000000 -2.954082 2.860926 -2.856025 -7.194515 5.004921 -19.740730 -178.673521 -87.021775 -163.127493 0.000000 0.000000 0.000000 5.333724 -11.876637 4.084254 10.674806 -8.175466 2.244237 -8.189049 -84.999023 -39.736701 0.000000 0.000000 0.000000 8.822400 -26.237687 -8.833916 4.638721 35.931776 6.234328 8.975426 -6.830980 2.040000 0.000000 0.000000 0.000000 3.351337 -40.782430 9.891274 -4.679203 64.869771 -3.386175 1.742541 5.759040 0.390161 0.000000 0.000000 0.000000 
-2013.801147 986.414001 1165.067993 3.611769 9.808348 2.160748 -1.958903 8.483600 -1.569145 0.910799 -1.700694 0.341007 1.365982 1.620581 -0.249844 2.984754 -12.277299 -7.533539 0.000000 0.000000 0.000000 -2.704499 3.589310 -2.677477 -6.497249 5.544919 -19.540880 -178.269157 -87.483695 -163.988635 0.000000 0.000000 0.000000 5.473058 -11.801329 4.562590 11.226875 -7.853177 2.296810 -7.891327 -85.847570 -41.065315 0.000000 0.000000 0.000000 9.314549 -25.412744 -8.808229 5.243638 35.996789 7.191576 9.754560 -5.926522 2.481946 0.000000 0.000000 0.000000 4.020556 -42.125992 10.344817 -4.007403 62.300029 -1.903642 1.692179 4.767786 0.351389 0.000000 0.000000 0.000000 
-1995.367310 988.885559 1167.764038 2.003214 9.653466 1.710007 -1.882266 8.782893 -2.021572 0.937918 -1.741737 0.441375 1.336316 1.672679 -0.329185 2.965114 -12.120828 -7.369769 0.000000 0.000000 0.000000 -2.540990 4.088080 -2.479012 -5.797367 5.867496 -19.374973 -177.830324 -88.168559 -164.877464 0.000000 0.000000 0.000000 5.637526 -11.601478 4.933184 11.568683 -7.505873 2.215523 -7.710864 -86.363818 -42.136296 0.000000 0.000000 0.000000 9.789792 -24.435142 -8.840275 5.862691 35.715502 8.109744 10.419428 -5.050944 2.880355 0.000000 0.000000 0.000000 4.572050 -43.176758 10.696785 -3.370057 58.904171 -0.568731 1.127171 4.220131 0.175299 0.000000 0.000000 0.000000 
